<mxfile modified="2022-05-03T10:49:16.315Z" host="app.diagrams.net" agent="5.0 (Windows NT 10.0; Win64; x64) AppleWebKit/537.36 (KHTML, like Gecko) Chrome/100.0.4896.127 Safari/537.36 Edg/100.0.1185.50" etag="npn4HW_mWwPmpKUfsqAr" compressed="false" version="17.5.0" type="google" pages="4">
  <diagram name="Copy of Conceptual Logical Modules" id="MWsOWuuxGkvUjytJdIeV">
    <mxGraphModel grid="1" page="1" gridSize="10" guides="1" tooltips="1" connect="1" arrows="1" fold="1" pageScale="1" pageWidth="827" pageHeight="1169" math="0" shadow="0">
      <root>
        <mxCell id="m35OMNeVOjYs6bBLrgTp-0" />
        <mxCell id="m35OMNeVOjYs6bBLrgTp-1" parent="m35OMNeVOjYs6bBLrgTp-0" />
        <mxCell id="m35OMNeVOjYs6bBLrgTp-2" value="Standard System &lt;br&gt;Logical Module" style="rounded=1;whiteSpace=wrap;html=1;absoluteArcSize=1;arcSize=8;fillColor=none;container=1;collapsible=0;recursiveResize=0;align=center;verticalAlign=top;" vertex="1" parent="m35OMNeVOjYs6bBLrgTp-1">
          <mxGeometry x="120" y="200" width="130" height="90" as="geometry" />
        </mxCell>
        <mxCell id="m35OMNeVOjYs6bBLrgTp-3" value="Automating via&lt;br&gt;Technology" style="text;html=1;strokeColor=none;fillColor=none;align=center;verticalAlign=middle;whiteSpace=wrap;rounded=0;fontSize=12;fontColor=#990000;" vertex="1" parent="m35OMNeVOjYs6bBLrgTp-2">
          <mxGeometry x="50" y="50" width="30" height="20" as="geometry" />
        </mxCell>
        <mxCell id="m35OMNeVOjYs6bBLrgTp-4" value="Organisation Specific &lt;br&gt;Logical Module" style="rounded=1;whiteSpace=wrap;html=1;absoluteArcSize=1;arcSize=8;fillColor=#f5f5f5;container=1;collapsible=0;recursiveResize=0;align=center;verticalAlign=top;strokeColor=#666666;fontColor=#333333;" vertex="1" parent="m35OMNeVOjYs6bBLrgTp-1">
          <mxGeometry x="260" y="200" width="130" height="90" as="geometry" />
        </mxCell>
        <mxCell id="m35OMNeVOjYs6bBLrgTp-5" value="Sector Specific&lt;br&gt;Logical Module" style="rounded=1;whiteSpace=wrap;html=1;absoluteArcSize=1;arcSize=8;fillColor=none;container=1;collapsible=0;recursiveResize=0;align=center;verticalAlign=top;" vertex="1" parent="m35OMNeVOjYs6bBLrgTp-1">
          <mxGeometry x="400" y="200" width="130" height="90" as="geometry" />
        </mxCell>
        <mxCell id="m35OMNeVOjYs6bBLrgTp-6" value="Business Domain&lt;br&gt;Specific Logical Module" style="rounded=1;whiteSpace=wrap;html=1;absoluteArcSize=1;arcSize=8;fillColor=none;container=1;collapsible=0;recursiveResize=0;align=center;verticalAlign=top;" vertex="1" parent="m35OMNeVOjYs6bBLrgTp-1">
          <mxGeometry x="540" y="200" width="130" height="90" as="geometry" />
        </mxCell>
        <mxCell id="m35OMNeVOjYs6bBLrgTp-7" value="Reusing Previous Investments" style="text;html=1;strokeColor=none;fillColor=none;align=center;verticalAlign=middle;whiteSpace=wrap;rounded=0;fontSize=12;fontColor=#990000;" vertex="1" parent="m35OMNeVOjYs6bBLrgTp-1">
          <mxGeometry x="270" y="250" width="110" height="20" as="geometry" />
        </mxCell>
        <mxCell id="m35OMNeVOjYs6bBLrgTp-8" value="Meeting 3rd party Obligations" style="text;html=1;strokeColor=none;fillColor=none;align=center;verticalAlign=middle;whiteSpace=wrap;rounded=0;fontSize=12;fontColor=#990000;" vertex="1" parent="m35OMNeVOjYs6bBLrgTp-1">
          <mxGeometry x="430" y="250" width="70" height="20" as="geometry" />
        </mxCell>
        <mxCell id="m35OMNeVOjYs6bBLrgTp-9" value="&amp;nbsp;Deliverying on Objectives" style="text;html=1;strokeColor=none;fillColor=none;align=center;verticalAlign=middle;whiteSpace=wrap;rounded=0;fontSize=12;fontColor=#990000;" vertex="1" parent="m35OMNeVOjYs6bBLrgTp-1">
          <mxGeometry x="570" y="250" width="70" height="20" as="geometry" />
        </mxCell>
        <mxCell id="m35OMNeVOjYs6bBLrgTp-10" value="&lt;font style=&quot;font-size: 12px&quot;&gt;Diagram: System - Functionality - Conceptual Logical Modules - HL&lt;/font&gt;" style="text;strokeColor=none;fillColor=none;html=1;fontSize=12;fontStyle=2;verticalAlign=middle;align=left;shadow=0;glass=0;comic=0;opacity=30;fontColor=#808080;" vertex="1" parent="m35OMNeVOjYs6bBLrgTp-1">
          <mxGeometry x="120" y="300" width="520" height="20" as="geometry" />
        </mxCell>
      </root>
    </mxGraphModel>
  </diagram>
  <diagram id="zHytQW2W9uu5GqDPMeDz" name="Conceptual Logical Modules">
    <mxGraphModel dx="1711" dy="741" grid="1" gridSize="10" guides="1" tooltips="1" connect="1" arrows="1" fold="1" page="1" pageScale="1" pageWidth="827" pageHeight="1169" math="0" shadow="0">
      <root>
        <mxCell id="Ho1h03iWlXXzzKWTW8rj-0" />
        <mxCell id="Ho1h03iWlXXzzKWTW8rj-1" parent="Ho1h03iWlXXzzKWTW8rj-0" />
        <mxCell id="Ho1h03iWlXXzzKWTW8rj-2" value="Standard System &lt;br&gt;Logical Module" style="rounded=1;whiteSpace=wrap;html=1;absoluteArcSize=1;arcSize=8;fillColor=#f5f5f5;container=1;collapsible=0;recursiveResize=0;align=center;verticalAlign=top;strokeColor=#666666;fontColor=#333333;" parent="Ho1h03iWlXXzzKWTW8rj-1" vertex="1">
          <mxGeometry x="120" y="200" width="130" height="90" as="geometry" />
        </mxCell>
        <mxCell id="Ho1h03iWlXXzzKWTW8rj-3" value="Automating via&lt;br&gt;Technology" style="text;html=1;strokeColor=none;fillColor=none;align=center;verticalAlign=middle;whiteSpace=wrap;rounded=0;fontSize=12;fontColor=#990000;" parent="Ho1h03iWlXXzzKWTW8rj-2" vertex="1">
          <mxGeometry x="50" y="50" width="30" height="20" as="geometry" />
        </mxCell>
        <mxCell id="Ho1h03iWlXXzzKWTW8rj-4" value="Organisation Specific &lt;br&gt;Logical Module" style="rounded=1;whiteSpace=wrap;html=1;absoluteArcSize=1;arcSize=8;fillColor=none;container=1;collapsible=0;recursiveResize=0;align=center;verticalAlign=top;" parent="Ho1h03iWlXXzzKWTW8rj-1" vertex="1">
          <mxGeometry x="260" y="200" width="130" height="90" as="geometry" />
        </mxCell>
        <mxCell id="Ho1h03iWlXXzzKWTW8rj-5" value="Sector Specific&lt;br&gt;Logical Module" style="rounded=1;whiteSpace=wrap;html=1;absoluteArcSize=1;arcSize=8;fillColor=none;container=1;collapsible=0;recursiveResize=0;align=center;verticalAlign=top;" parent="Ho1h03iWlXXzzKWTW8rj-1" vertex="1">
          <mxGeometry x="400" y="200" width="130" height="90" as="geometry" />
        </mxCell>
        <mxCell id="Ho1h03iWlXXzzKWTW8rj-6" value="Business Domain&lt;br&gt;Specific Logical Module" style="rounded=1;whiteSpace=wrap;html=1;absoluteArcSize=1;arcSize=8;fillColor=none;container=1;collapsible=0;recursiveResize=0;align=center;verticalAlign=top;" parent="Ho1h03iWlXXzzKWTW8rj-1" vertex="1">
          <mxGeometry x="540" y="200" width="130" height="90" as="geometry" />
        </mxCell>
        <mxCell id="Ho1h03iWlXXzzKWTW8rj-7" value="Reusing Previous Investments" style="text;html=1;strokeColor=none;fillColor=none;align=center;verticalAlign=middle;whiteSpace=wrap;rounded=0;fontSize=12;fontColor=#990000;" parent="Ho1h03iWlXXzzKWTW8rj-1" vertex="1">
          <mxGeometry x="270" y="250" width="110" height="20" as="geometry" />
        </mxCell>
        <mxCell id="Ho1h03iWlXXzzKWTW8rj-8" value="Meeting 3rd party Obligations" style="text;html=1;strokeColor=none;fillColor=none;align=center;verticalAlign=middle;whiteSpace=wrap;rounded=0;fontSize=12;fontColor=#990000;" parent="Ho1h03iWlXXzzKWTW8rj-1" vertex="1">
          <mxGeometry x="430" y="250" width="70" height="20" as="geometry" />
        </mxCell>
        <mxCell id="Ho1h03iWlXXzzKWTW8rj-9" value="&amp;nbsp;Deliverying on Objectives" style="text;html=1;strokeColor=none;fillColor=none;align=center;verticalAlign=middle;whiteSpace=wrap;rounded=0;fontSize=12;fontColor=#990000;" parent="Ho1h03iWlXXzzKWTW8rj-1" vertex="1">
          <mxGeometry x="570" y="250" width="70" height="20" as="geometry" />
        </mxCell>
        <mxCell id="Ho1h03iWlXXzzKWTW8rj-10" value="&lt;font style=&quot;font-size: 12px&quot;&gt;Diagram: System - Functionality - Conceptual Logical Modules - HL&lt;/font&gt;" style="text;strokeColor=none;fillColor=none;html=1;fontSize=12;fontStyle=2;verticalAlign=middle;align=left;shadow=0;glass=0;comic=0;opacity=30;fontColor=#808080;" parent="Ho1h03iWlXXzzKWTW8rj-1" vertex="1">
          <mxGeometry x="120" y="300" width="520" height="20" as="geometry" />
        </mxCell>
      </root>
    </mxGraphModel>
  </diagram>
  <diagram name="Copy of Copy of Conceptual Logical Modules" id="9RXLtEgwIPHtUU5an_yS">
    <mxGraphModel dx="782" dy="446" grid="1" gridSize="10" guides="1" tooltips="1" connect="1" arrows="1" fold="1" page="1" pageScale="1" pageWidth="827" pageHeight="1169" math="0" shadow="0">
      <root>
        <mxCell id="OBM4yamt4B7GQnR3-U2X-0" />
        <mxCell id="OBM4yamt4B7GQnR3-U2X-1" parent="OBM4yamt4B7GQnR3-U2X-0" />
        <mxCell id="OBM4yamt4B7GQnR3-U2X-2" value="Standard System &lt;br&gt;Logical Module" style="rounded=1;whiteSpace=wrap;html=1;absoluteArcSize=1;arcSize=8;fillColor=none;container=1;collapsible=0;recursiveResize=0;align=center;verticalAlign=top;" parent="OBM4yamt4B7GQnR3-U2X-1" vertex="1">
          <mxGeometry x="120" y="200" width="130" height="90" as="geometry" />
        </mxCell>
        <mxCell id="OBM4yamt4B7GQnR3-U2X-3" value="Automating via&lt;br&gt;Technology" style="text;html=1;strokeColor=none;fillColor=none;align=center;verticalAlign=middle;whiteSpace=wrap;rounded=0;fontSize=12;fontColor=#990000;" parent="OBM4yamt4B7GQnR3-U2X-2" vertex="1">
          <mxGeometry x="50" y="50" width="30" height="20" as="geometry" />
        </mxCell>
        <mxCell id="OBM4yamt4B7GQnR3-U2X-4" value="Organisation Specific &lt;br&gt;Logical Module" style="rounded=1;whiteSpace=wrap;html=1;absoluteArcSize=1;arcSize=8;fillColor=none;container=1;collapsible=0;recursiveResize=0;align=center;verticalAlign=top;" parent="OBM4yamt4B7GQnR3-U2X-1" vertex="1">
          <mxGeometry x="260" y="200" width="130" height="90" as="geometry" />
        </mxCell>
        <mxCell id="OBM4yamt4B7GQnR3-U2X-5" value="Sector Specific&lt;br&gt;Logical Module" style="rounded=1;whiteSpace=wrap;html=1;absoluteArcSize=1;arcSize=8;fillColor=#f5f5f5;container=1;collapsible=0;recursiveResize=0;align=center;verticalAlign=top;strokeColor=#666666;fontColor=#333333;" parent="OBM4yamt4B7GQnR3-U2X-1" vertex="1">
          <mxGeometry x="400" y="200" width="130" height="90" as="geometry" />
        </mxCell>
        <mxCell id="OBM4yamt4B7GQnR3-U2X-6" value="Business Domain&lt;br&gt;Specific Logical Module" style="rounded=1;whiteSpace=wrap;html=1;absoluteArcSize=1;arcSize=8;fillColor=none;container=1;collapsible=0;recursiveResize=0;align=center;verticalAlign=top;" parent="OBM4yamt4B7GQnR3-U2X-1" vertex="1">
          <mxGeometry x="540" y="200" width="130" height="90" as="geometry" />
        </mxCell>
        <mxCell id="OBM4yamt4B7GQnR3-U2X-7" value="Reusing Previous Investments" style="text;html=1;strokeColor=none;fillColor=none;align=center;verticalAlign=middle;whiteSpace=wrap;rounded=0;fontSize=12;fontColor=#990000;" parent="OBM4yamt4B7GQnR3-U2X-1" vertex="1">
          <mxGeometry x="270" y="250" width="110" height="20" as="geometry" />
        </mxCell>
        <mxCell id="OBM4yamt4B7GQnR3-U2X-8" value="Meeting 3rd party Obligations" style="text;html=1;strokeColor=none;fillColor=none;align=center;verticalAlign=middle;whiteSpace=wrap;rounded=0;fontSize=12;fontColor=#990000;" parent="OBM4yamt4B7GQnR3-U2X-1" vertex="1">
          <mxGeometry x="430" y="250" width="70" height="20" as="geometry" />
        </mxCell>
        <mxCell id="OBM4yamt4B7GQnR3-U2X-9" value="&amp;nbsp;Deliverying on Objectives" style="text;html=1;strokeColor=none;fillColor=none;align=center;verticalAlign=middle;whiteSpace=wrap;rounded=0;fontSize=12;fontColor=#990000;" parent="OBM4yamt4B7GQnR3-U2X-1" vertex="1">
          <mxGeometry x="570" y="250" width="70" height="20" as="geometry" />
        </mxCell>
        <mxCell id="OBM4yamt4B7GQnR3-U2X-10" value="&lt;font style=&quot;font-size: 12px&quot;&gt;Diagram: System - Functionality - Conceptual Logical Modules - HL&lt;/font&gt;" style="text;strokeColor=none;fillColor=none;html=1;fontSize=12;fontStyle=2;verticalAlign=middle;align=left;shadow=0;glass=0;comic=0;opacity=30;fontColor=#808080;" parent="OBM4yamt4B7GQnR3-U2X-1" vertex="1">
          <mxGeometry x="120" y="300" width="520" height="20" as="geometry" />
        </mxCell>
      </root>
    </mxGraphModel>
  </diagram>
  <diagram name="Copy of Copy of Copy of Conceptual Logical Modules" id="s_-mx44TbOVshHe6_NLI">
    <mxGraphModel grid="1" page="1" gridSize="10" guides="1" tooltips="1" connect="1" arrows="1" fold="1" pageScale="1" pageWidth="827" pageHeight="1169" math="0" shadow="0">
      <root>
        <mxCell id="805ScvDnP6wpKBeZ9hqA-0" />
        <mxCell id="805ScvDnP6wpKBeZ9hqA-1" parent="805ScvDnP6wpKBeZ9hqA-0" />
        <mxCell id="805ScvDnP6wpKBeZ9hqA-2" value="Standard System &lt;br&gt;Logical Module" style="rounded=1;whiteSpace=wrap;html=1;absoluteArcSize=1;arcSize=8;fillColor=none;container=1;collapsible=0;recursiveResize=0;align=center;verticalAlign=top;" parent="805ScvDnP6wpKBeZ9hqA-1" vertex="1">
          <mxGeometry x="120" y="200" width="130" height="90" as="geometry" />
        </mxCell>
        <mxCell id="805ScvDnP6wpKBeZ9hqA-3" value="Automating via&lt;br&gt;Technology" style="text;html=1;strokeColor=none;fillColor=none;align=center;verticalAlign=middle;whiteSpace=wrap;rounded=0;fontSize=12;fontColor=#990000;" parent="805ScvDnP6wpKBeZ9hqA-2" vertex="1">
          <mxGeometry x="50" y="50" width="30" height="20" as="geometry" />
        </mxCell>
        <mxCell id="805ScvDnP6wpKBeZ9hqA-4" value="Organisation Specific &lt;br&gt;Logical Module" style="rounded=1;whiteSpace=wrap;html=1;absoluteArcSize=1;arcSize=8;fillColor=none;container=1;collapsible=0;recursiveResize=0;align=center;verticalAlign=top;" parent="805ScvDnP6wpKBeZ9hqA-1" vertex="1">
          <mxGeometry x="260" y="200" width="130" height="90" as="geometry" />
        </mxCell>
        <mxCell id="805ScvDnP6wpKBeZ9hqA-5" value="Sector Specific&lt;br&gt;Logical Module" style="rounded=1;whiteSpace=wrap;html=1;absoluteArcSize=1;arcSize=8;container=1;collapsible=0;recursiveResize=0;align=center;verticalAlign=top;strokeColor=#666666;fontColor=#333333;fillColor=none;" parent="805ScvDnP6wpKBeZ9hqA-1" vertex="1">
          <mxGeometry x="400" y="200" width="130" height="90" as="geometry" />
        </mxCell>
        <mxCell id="805ScvDnP6wpKBeZ9hqA-6" value="Business Domain&lt;br&gt;Specific Logical Module" style="rounded=1;whiteSpace=wrap;html=1;absoluteArcSize=1;arcSize=8;fillColor=#f5f5f5;container=1;collapsible=0;recursiveResize=0;align=center;verticalAlign=top;strokeColor=#666666;fontColor=#333333;" parent="805ScvDnP6wpKBeZ9hqA-1" vertex="1">
          <mxGeometry x="540" y="200" width="130" height="90" as="geometry" />
        </mxCell>
        <mxCell id="805ScvDnP6wpKBeZ9hqA-7" value="Reusing Previous Investments" style="text;html=1;strokeColor=none;fillColor=none;align=center;verticalAlign=middle;whiteSpace=wrap;rounded=0;fontSize=12;fontColor=#990000;" parent="805ScvDnP6wpKBeZ9hqA-1" vertex="1">
          <mxGeometry x="270" y="250" width="110" height="20" as="geometry" />
        </mxCell>
        <mxCell id="805ScvDnP6wpKBeZ9hqA-8" value="Meeting 3rd party Obligations" style="text;html=1;strokeColor=none;fillColor=none;align=center;verticalAlign=middle;whiteSpace=wrap;rounded=0;fontSize=12;fontColor=#990000;" parent="805ScvDnP6wpKBeZ9hqA-1" vertex="1">
          <mxGeometry x="430" y="250" width="70" height="20" as="geometry" />
        </mxCell>
        <mxCell id="805ScvDnP6wpKBeZ9hqA-9" value="&amp;nbsp;Deliverying on Objectives" style="text;html=1;strokeColor=none;fillColor=none;align=center;verticalAlign=middle;whiteSpace=wrap;rounded=0;fontSize=12;fontColor=#990000;" parent="805ScvDnP6wpKBeZ9hqA-1" vertex="1">
          <mxGeometry x="570" y="250" width="70" height="20" as="geometry" />
        </mxCell>
        <mxCell id="805ScvDnP6wpKBeZ9hqA-10" value="&lt;font style=&quot;font-size: 12px&quot;&gt;Diagram: System - Functionality - Conceptual Logical Modules - HL&lt;/font&gt;" style="text;strokeColor=none;fillColor=none;html=1;fontSize=12;fontStyle=2;verticalAlign=middle;align=left;shadow=0;glass=0;comic=0;opacity=30;fontColor=#808080;" parent="805ScvDnP6wpKBeZ9hqA-1" vertex="1">
          <mxGeometry x="120" y="300" width="520" height="20" as="geometry" />
        </mxCell>
      </root>
    </mxGraphModel>
  </diagram>
</mxfile>
